<?xml version="1.0" encoding="UTF-8"?>
<svg version="1.1" xmlns="http://www.w3.org/2000/svg" width="512" height="512">
<path d="M0 0 C2.67887272 2.9850296 3.36552423 5.55179634 4.1875 9.4375 C5.05375 9.334375 5.92 9.23125 6.8125 9.125 C11.09989387 9.52198091 13.49062216 11.22525022 16.1875 14.4375 C19.73266821 19.79931273 21.19929755 24.65716539 22.375 30.9375 C22.6215332 32.16146484 22.6215332 32.16146484 22.87304688 33.41015625 C24.36327094 40.92764284 25.34865471 48.25729026 25.42578125 55.921875 C25.4355751 56.72662262 25.44536896 57.53137024 25.45545959 58.36050415 C25.63948924 77.44805421 25.01868255 95.66857538 21.1875 114.4375 C20.98914551 115.45215332 20.79079102 116.46680664 20.58642578 117.51220703 C3.41528147 203.83238277 -31.834095 295.19576679 -75.625 384 C-76.37885986 385.48802124 -76.37885986 385.48802124 -77.14794922 387.00610352 C-82.81666733 397.88763794 -89.91996821 410.68438749 -102.01953125 415.09375 C-106.58710882 416.51910659 -110.79377887 416.97799108 -115.5625 416.9375 C-116.37396484 416.93177979 -117.18542969 416.92605957 -118.02148438 416.92016602 C-145.73979511 416.13403745 -174.03720519 402.52974731 -196.61889648 387.34594727 C-198.79028746 386.16258022 -198.79028746 386.16258022 -200.97192383 387.18359375 C-203.11125303 388.64102773 -205.08062788 390.20842572 -207.0625 391.875 C-211.32211153 395.33865492 -215.7082327 398.48888019 -220.25 401.5625 C-226.29264024 405.65752428 -232.20456081 409.89504098 -238.0625 414.25 C-255.83730812 427.41972126 -274.09510719 439.64669583 -292.8125 451.4375 C-294.16421471 452.29663557 -295.51580178 453.15597203 -296.8671875 454.015625 C-319.33406714 468.13150621 -319.33406714 468.13150621 -332.5 468.6875 C-337.25173827 469.06462208 -339.18645293 471.3379933 -342.265625 474.77734375 C-344.30690518 476.96811162 -345.87382712 477.84976542 -348.8125 478.4375 C-354.19633042 478.24522034 -356.97166494 477.17599306 -360.8125 473.4375 C-362.14596847 470.84399194 -363.20012245 468.46866969 -364.1875 465.75 C-364.47858643 464.97035889 -364.76967285 464.19071777 -365.06958008 463.38745117 C-371.65265744 445.22973229 -376.22943022 426.56537092 -378.8125 407.4375 C-378.96203125 406.37563477 -379.1115625 405.31376953 -379.265625 404.21972656 C-384.86792851 362.57674207 -382.50827157 319.63813817 -379.26980591 277.89253235 C-378.97583076 274.06289079 -378.73105502 270.28238166 -378.8125 266.4375 C-380.21048828 266.01791016 -380.21048828 266.01791016 -381.63671875 265.58984375 C-412.0941841 256.14404681 -436.43577999 232.08104658 -455.8125 207.4375 C-457.48773578 205.39455523 -459.17399241 203.3610017 -460.86083984 201.32763672 C-466.83599969 194.12262574 -472.73434101 186.86458545 -478.45703125 179.45703125 C-479.87816943 177.63524051 -481.32654091 175.8336267 -482.82421875 174.07421875 C-485.60557372 170.73529611 -487.16232101 168.48882802 -487.3125 164.0625 C-486.8125 160.4375 -486.8125 160.4375 -484.8125 158.4375 C-484.53812243 156.16838392 -484.53812243 156.16838392 -484.5 153.625 C-484.18341551 150.11744484 -483.99348018 148.69690492 -481.9375 145.75 C-464.40299897 132.77446924 -444.52360875 126.45044207 -423.97851562 119.79248047 C-416.86826458 117.48509336 -409.77881825 115.11478026 -402.6875 112.75 C-401.94722565 112.50348694 -401.20695129 112.25697388 -400.44424438 112.00299072 C-387.65293125 107.74282911 -374.88483643 103.41595267 -362.125 99.0625 C-361.19510254 98.74532013 -360.26520508 98.42814026 -359.30712891 98.10134888 C-350.32103316 95.035517 -341.33669817 91.96470595 -332.35975647 88.87216187 C-240.80539782 57.332529 -148.29563826 31.19605454 -42.52514648 5.97811127 C-40.26343928 5.44069339 -38.00237429 4.90064678 -35.74145508 4.35992432 C-32.19666271 3.5127708 -28.65001034 2.67389412 -25.10173225 1.841465 C-23.1797091 1.38880464 -21.25943091 0.92875495 -19.33921814 0.46847534 C-5.11688308 -2.84271282 -5.11688308 -2.84271282 0 0 Z M-60.1953125 42.65234375 C-73.22998999 46.56731975 -86.31779144 49.79369248 -99.625 52.625 C-100.48527802 52.80818787 -101.34555603 52.99137573 -102.23190308 53.18011475 C-114.05920348 55.68671839 -125.91162085 58.06127993 -137.7734375 60.3984375 C-139.08423989 60.65743318 -140.39502576 60.91651252 -141.70579529 61.17567444 C-143.02284911 61.43592589 -144.3399115 61.69613396 -145.65698242 61.95629883 C-146.3104386 62.08538163 -146.96389479 62.21446444 -147.63715267 62.34745884 C-152.05062187 63.21786977 -156.46691447 64.0728976 -160.8840332 64.92456055 C-191.16657922 70.8214883 -220.23904446 79.20208341 -249.45365524 88.96294022 C-252.92435734 90.12090161 -256.39750236 91.2714469 -259.87054539 92.42236423 C-288.2736785 101.83750034 -316.59481541 111.47939036 -344.8125 121.4375 C-345.78598389 121.78089417 -346.75946777 122.12428833 -347.76245117 122.47808838 C-356.6188815 125.60327464 -365.47253212 128.73626961 -374.32226562 131.88037109 C-393.02799379 138.52570452 -411.75915657 145.09782585 -430.49291992 151.66357422 C-432.78564473 152.46712182 -435.07836935 153.27066998 -437.37109375 154.07421875 C-438.45702316 154.45477417 -439.54295258 154.83532959 -440.66178894 155.22741699 C-449.38320594 158.2846978 -458.09977373 161.35554589 -466.8125 164.4375 C-465.4262057 167.5580998 -463.81958912 169.67895627 -461.40771484 172.08520508 C-460.71294037 172.78305618 -460.01816589 173.48090729 -459.30233765 174.1999054 C-458.5503006 174.94475693 -457.79826355 175.68960846 -457.0234375 176.45703125 C-456.24618317 177.23382736 -455.46892883 178.01062347 -454.66812134 178.81095886 C-453.02118327 180.45487633 -451.37181595 182.09636313 -449.72021484 183.7355957 C-447.21271134 186.22497093 -444.7131744 188.72212575 -442.21484375 191.22070312 C-440.60984353 192.82078261 -439.00438894 194.42040648 -437.3984375 196.01953125 C-436.65854584 196.75831009 -435.91865417 197.49708893 -435.15634155 198.258255 C-415.64054763 217.59959176 -392.35502577 236.8819311 -363.6875 237.8125 C-334.74721274 237.28895711 -312.78036594 218.49362628 -291.54345703 200.87304688 C-289.14308607 198.8823302 -286.72780289 196.91005735 -284.3125 194.9375 C-281.29731758 192.47338361 -278.28714746 190.00358725 -275.28515625 187.5234375 C-253.40054836 169.51048609 -231.00465534 153.95138787 -206.18457031 140.29492188 C-201.7160813 137.83356477 -197.25879868 135.35227711 -192.80102539 132.87158203 C-184.85729571 128.45141569 -176.90833269 124.04084448 -168.94921875 119.6484375 C-154.11195587 111.45107225 -139.40295873 103.06639215 -124.8125 94.4375 C-123.75192383 93.81311035 -122.69134766 93.1887207 -121.59863281 92.54541016 C-100.72697259 80.24437359 -81.29036986 67.14754286 -62.75 51.5625 C-61.96363159 50.90217773 -61.96363159 50.90217773 -61.16137695 50.22851562 C-57.87914875 47.43747996 -54.81961961 44.51634907 -51.8125 41.4375 C-55.21767998 41.4375 -57.06038714 41.67779521 -60.1953125 42.65234375 Z M0.1875 44.4375 C-4.45325322 49.49515303 -8.99500335 54.59964258 -13.3125 59.9375 C-16.92399134 64.40170457 -20.69910694 68.66752114 -24.56640625 72.91015625 C-26.87437598 75.50712393 -29.06805863 78.17154013 -31.25 80.875 C-35.11424764 85.65322621 -39.1939871 90.17976018 -43.35546875 94.69921875 C-45.70626133 97.31910046 -47.92500459 100.00302219 -50.125 102.75 C-54.75671018 108.4923334 -59.76073463 113.838143 -64.8046875 119.21484375 C-67.6547557 122.25544331 -70.41738811 125.36098424 -73.140625 128.515625 C-75.17008073 130.84855074 -77.240147 133.14261245 -79.3125 135.4375 C-82.00233431 138.41812721 -84.67560364 141.40995233 -87.3125 144.4375 C-91.42332427 149.15452877 -95.6199226 153.79319709 -99.8125 158.4375 C-101.31278679 160.10390851 -102.81278872 161.77057353 -104.3125 163.4375 C-106.5842129 165.96250493 -108.85685414 168.48663304 -111.1328125 171.0078125 C-114.51162708 174.75314256 -117.88145965 178.50268207 -121.1875 182.3125 C-124.63966078 186.27847076 -128.20000881 190.14267646 -131.76074219 194.01074219 C-134.91947965 197.4477442 -138.01888336 200.92771321 -141.078125 204.453125 C-145.34156618 209.33111626 -149.70194215 214.12611052 -154.0703125 218.91015625 C-157.86201354 223.0783851 -161.5358047 227.29200202 -165.0625 231.6875 C-169.72308865 237.45191228 -174.75029281 242.82601953 -179.81640625 248.23046875 C-183.24335521 251.88735766 -186.55503998 255.62909537 -189.8125 259.4375 C-190.68872321 260.45970303 -191.56503345 261.48183146 -192.44140625 262.50390625 C-193.95773109 264.27290982 -195.4736553 266.04225042 -196.98852539 267.8125 C-200.74648227 272.20209989 -204.52452864 276.57378876 -208.3125 280.9375 C-221.08113455 295.63412976 -221.08113455 295.63412976 -233.49609375 310.62890625 C-235.24955222 312.75493769 -237.02695374 314.83524744 -238.84765625 316.90234375 C-239.36062256 317.49007568 -239.87358887 318.07780762 -240.40209961 318.68334961 C-241.40882668 319.83350607 -242.42373463 320.976564 -243.44750977 322.11157227 C-244.98770397 323.83216116 -244.98770397 323.83216116 -246.8125 326.4375 C-245.53628278 330.26615165 -244.1914133 330.74022461 -240.8125 332.875 C-235.66708034 336.20582196 -230.62343143 339.63994882 -225.625 343.1875 C-224.90352783 343.69724365 -224.18205566 344.2069873 -223.4387207 344.73217773 C-219.8275852 347.28639553 -216.22897295 349.85617872 -212.6484375 352.453125 C-192.56583921 366.9501174 -171.35418904 379.51205873 -147.8125 387.4375 C-147.03003906 387.705625 -146.24757813 387.97375 -145.44140625 388.25 C-134.30690777 391.37547326 -119.99459315 390.97422742 -109.8125 385.4375 C-106.92033053 383.65176547 -104.36182027 381.6817734 -101.8125 379.4375 C-101.22984375 378.94765625 -100.6471875 378.4578125 -100.046875 377.953125 C-81.40011263 360.98625113 -75.46906466 330.49573666 -68.43237305 307.41796875 C-62.2874934 287.29137798 -54.88679915 267.88976944 -46.75 248.5 C-4.47889669 151.83923913 -4.47889669 151.83923913 2.1875 48.4375 C1.23896646 46.15569111 1.23896646 46.15569111 0.1875 44.4375 Z M-71.8125 91.4375 C-74.26407564 92.82529968 -76.58830544 94.26603694 -78.9375 95.8125 C-85.4508335 100.00396803 -92.06395612 103.91629027 -98.84619141 107.65576172 C-102.02295668 109.27387024 -102.02295668 109.27387024 -104.8125 111.4375 C-104.88569621 114.13404854 -104.90492537 116.80441458 -104.875 119.5 C-104.87048828 120.25861328 -104.86597656 121.01722656 -104.86132812 121.79882812 C-104.8495068 123.67841871 -104.83157078 125.55796899 -104.8125 127.4375 C-99.50072974 123.05339984 -94.78851968 118.37360876 -90.125 113.3125 C-83.50323961 106.19596589 -76.74446287 99.25130441 -69.8125 92.4375 C-70.4725 92.1075 -71.1325 91.7775 -71.8125 91.4375 Z M-124.9375 121.9375 C-125.66195313 122.4015625 -126.38640625 122.865625 -127.1328125 123.34375 C-127.68710937 123.7046875 -128.24140625 124.065625 -128.8125 124.4375 C-128.20021358 127.89821059 -127.57052982 131.35552866 -126.9375 134.8125 C-126.76347656 135.79734375 -126.58945312 136.7821875 -126.41015625 137.796875 C-126.23613281 138.73789063 -126.06210937 139.67890625 -125.8828125 140.6484375 C-125.72570801 141.51774902 -125.56860352 142.38706055 -125.40673828 143.28271484 C-124.95059963 145.62851703 -124.95059963 145.62851703 -122.8125 147.4375 C-120.18280485 145.45677846 -118.54376293 144.16771854 -116.8125 141.4375 C-116.34588888 137.55796185 -116.87605161 133.91314161 -117.4375 130.0625 C-117.55996094 129.04027344 -117.68242187 128.01804688 -117.80859375 126.96484375 C-118.11407283 124.45051598 -118.44933555 121.9440343 -118.8125 119.4375 C-121.48800292 119.4375 -122.70294641 120.49585252 -124.9375 121.9375 Z M-152.875 136.1875 C-153.90689453 136.72632813 -154.93878906 137.26515625 -156.00195312 137.8203125 C-156.98228516 138.34882813 -157.96261719 138.87734375 -158.97265625 139.421875 C-159.87636963 139.90366211 -160.78008301 140.38544922 -161.71118164 140.88183594 C-163.90939024 142.2400267 -163.90939024 142.2400267 -164.62963867 144.29760742 C-165.02119427 148.87969668 -164.45090376 153.43070723 -164.0625 158 C-163.98773438 159.03447266 -163.91296875 160.06894531 -163.8359375 161.13476562 C-163.08765872 171.59988271 -163.08765872 171.59988271 -159.8125 181.4375 C-157.29922518 182.79004293 -157.29922518 182.79004293 -154.8125 183.4375 C-147.50627482 175.41101058 -147.50627482 175.41101058 -140.40234375 167.20703125 C-138.8125 165.4375 -138.8125 165.4375 -137.12890625 164.13671875 C-135.28141484 162.7481332 -135.28141484 162.7481332 -133.8125 159.4375 C-134.41640711 155.67223069 -135.46657525 152.12191133 -136.61328125 148.49609375 C-138.45538448 142.60221821 -139.09569457 136.55864114 -139.8125 130.4375 C-144.35773379 130.4375 -148.95747244 134.07522809 -152.875 136.1875 Z M-183.9375 153.4375 C-184.59621094 153.8190625 -185.25492187 154.200625 -185.93359375 154.59375 C-187.56212748 155.53782752 -189.18760657 156.48717068 -190.8125 157.4375 C-190.29330113 173.63650471 -187.45301747 189.66736603 -183.8125 205.4375 C-180.85041317 206.18124137 -178.80305886 206.68204882 -175.8125 206.4375 C-173.12467503 204.72673175 -171.29682721 202.46775386 -169.3125 200 C-168.77625 199.37544922 -168.24 198.75089844 -167.6875 198.10742188 C-166.37304336 196.56997706 -165.08955546 195.00614979 -163.8125 193.4375 C-164.21082031 193.04820312 -164.60914063 192.65890625 -165.01953125 192.2578125 C-173.03018175 183.79887742 -173.3473483 173.4973934 -174 162.3125 C-174.08185547 161.06984375 -174.16371094 159.8271875 -174.24804688 158.546875 C-174.44655158 155.51092066 -174.63446098 152.47471147 -174.8125 149.4375 C-178.25485117 149.4375 -181.03009941 151.73336025 -183.9375 153.4375 Z M-210.125 169.6875 C-211.42727539 170.56728516 -211.42727539 170.56728516 -212.75585938 171.46484375 C-213.59568359 172.03847656 -214.43550781 172.61210937 -215.30078125 173.203125 C-216.06946533 173.72680664 -216.83814941 174.25048828 -217.63012695 174.79003906 C-219.90483505 176.5072032 -221.84554549 178.37914374 -223.8125 180.4375 C-223.4825 180.7675 -223.1525 181.0975 -222.8125 181.4375 C-222.67031109 183.13119253 -222.5952861 184.83057309 -222.54711914 186.52954102 C-222.51360855 187.61900528 -222.48009796 188.70846954 -222.4455719 189.83094788 C-222.41325974 191.02239914 -222.38094757 192.2138504 -222.34765625 193.44140625 C-222.2690096 195.96289466 -222.19022901 198.4843789 -222.11132812 201.00585938 C-221.99260367 204.98130019 -221.87623182 208.95677371 -221.76293945 212.93237305 C-221.20382818 233.76099422 -221.20382818 233.76099422 -218.8125 254.4375 C-217.8225 254.4375 -216.8325 254.4375 -215.8125 254.4375 C-213.97625708 252.54406263 -212.3350052 250.67287098 -210.6875 248.625 C-210.20466553 248.038396 -209.72183105 247.45179199 -209.22436523 246.84741211 C-208.22995814 245.63736227 -207.23933523 244.42419311 -206.25244141 243.20800781 C-204.92340751 241.57386848 -203.58076803 239.95251516 -202.23046875 238.3359375 C-200.06039689 235.72321417 -197.8982806 233.11803784 -195.8125 230.4375 C-195.02488281 229.57769531 -194.23726563 228.71789062 -193.42578125 227.83203125 C-190.93922798 222.60003419 -192.54464325 218.51020254 -193.9375 213.0625 C-194.43932994 210.89294795 -194.93673001 208.72236646 -195.4296875 206.55078125 C-195.67299805 205.49842285 -195.91630859 204.44606445 -196.16699219 203.36181641 C-199.05674601 190.27048839 -199.33349487 176.78733407 -199.8125 163.4375 C-203.07356264 163.4375 -207.50858606 167.89722115 -210.125 169.6875 Z M-235.05078125 188.17578125 C-235.70626953 188.74876953 -236.36175781 189.32175781 -237.03710938 189.91210938 C-238.07061523 190.82186523 -238.07061523 190.82186523 -239.125 191.75 C-240.47416024 192.93484767 -241.82438989 194.11847894 -243.17578125 195.30078125 C-243.77688721 195.82969971 -244.37799316 196.35861816 -244.99731445 196.90356445 C-246.8125 198.4375 -246.8125 198.4375 -249.0480957 199.89208984 C-249.63034912 200.4020752 -250.21260254 200.91206055 -250.8125 201.4375 C-250.70395544 204.59486956 -250.35889401 207.34664592 -249.8125 210.4375 C-249.51816905 212.49274198 -249.22948874 214.5487981 -248.9453125 216.60546875 C-248.78329346 217.73114258 -248.62127441 218.85681641 -248.4543457 220.01660156 C-245.29840291 242.0500614 -242.75857982 264.18831244 -241.8125 286.4375 C-238.07678844 282.80987413 -234.64225932 279.05443645 -231.375 275 C-230.66827148 274.17918945 -230.66827148 274.17918945 -229.94726562 273.34179688 C-228.4128606 271.51353403 -228.4128606 271.51353403 -226.8125 268.4375 C-227.26426958 265.54853734 -227.26426958 265.54853734 -228.8125 262.4375 C-231.78240333 253.9333873 -232.21462536 246.08195696 -232.0625 237.125 C-232.05154297 235.81208984 -232.04058594 234.49917969 -232.02929688 233.14648438 C-231.93412506 223.48962953 -231.5475932 213.85340015 -231.03515625 204.2109375 C-230.71503851 197.95169419 -230.71625651 191.70402079 -230.8125 185.4375 C-232.61061122 185.4375 -233.75439916 187.03596451 -235.05078125 188.17578125 Z M-267.625 216.25 C-268.88049743 217.34101056 -270.13698176 218.43088663 -271.39453125 219.51953125 C-271.95374268 220.00655518 -272.5129541 220.4935791 -273.08911133 220.99536133 C-274.8125 222.4375 -274.8125 222.4375 -276.90740967 223.72348022 C-279.02064075 225.26790722 -279.02064075 225.26790722 -279.18968201 227.66194153 C-279.13280716 228.533806 -279.07593231 229.40567047 -279.01733398 230.30395508 C-278.96416519 231.3035173 -278.9109964 232.30307953 -278.85621643 233.33293152 C-278.77862595 234.42575943 -278.70103546 235.51858734 -278.62109375 236.64453125 C-278.49003295 239.02023601 -278.36105415 241.39605631 -278.23388672 243.77197266 C-278.16159851 245.02560608 -278.0893103 246.2792395 -278.01483154 247.57086182 C-277.67700036 254.02695334 -277.51909107 260.48694086 -277.34765625 266.94921875 C-277.27059753 269.63091041 -277.19084331 272.31252083 -277.11132812 274.99414062 C-276.99157429 279.06736949 -276.87395028 283.14063403 -276.76293945 287.21411133 C-276.60391123 315.00785404 -276.60391123 315.00785404 -272.8125 342.4375 C-270.8325 340.7875 -268.8525 339.1375 -266.8125 337.4375 C-268.01631448 334.94388429 -269.26678722 332.75606917 -270.8125 330.4375 C-271.2641129 324.11491935 -271.2641129 324.11491935 -268.8125 320.4375 C-268.04679688 319.9940625 -267.28109375 319.550625 -266.4921875 319.09375 C-263.26411409 317.09855594 -261.31092352 314.89455225 -258.9375 311.9375 C-258.13570312 310.9784375 -257.33390625 310.019375 -256.5078125 309.03125 C-254.46348994 304.69766301 -254.82158385 302.54600804 -255.44921875 297.9140625 C-255.8993966 293.60590885 -255.88455024 289.37424003 -255.83984375 285.046875 C-255.83318695 284.18529282 -255.82653015 283.32371063 -255.81967163 282.4360199 C-255.80526658 280.62334291 -255.78972554 278.81067464 -255.77313232 276.99801636 C-255.65459147 262.59561503 -255.74633612 248.25010511 -256.6875 233.875 C-256.76605225 232.64813477 -256.84460449 231.42126953 -256.92553711 230.15722656 C-257.41601321 223.45358196 -258.2928247 216.98702083 -259.8125 210.4375 C-262.36507249 210.4375 -265.64793536 214.52727131 -267.625 216.25 Z M-294.13305664 237.24804688 C-304.30164703 244.62727876 -314.80323606 250.956683 -326.04272461 256.55859375 C-326.75198593 256.91236084 -327.46124725 257.26612793 -328.19200134 257.63061523 C-328.7267659 257.89688721 -329.26153046 258.16315918 -329.8125 258.4375 C-329.82129936 259.36039825 -329.82129936 259.36039825 -329.83027649 260.30194092 C-329.91210726 268.59734 -330.01294039 276.89245993 -330.125 285.1875 C-330.1343092 285.87942066 -330.14361839 286.57134132 -330.15320969 287.28422928 C-330.55358525 316.52845749 -331.54147148 345.74369546 -332.69225216 374.96714973 C-332.86131032 379.26836297 -333.02747864 383.56968203 -333.19140625 387.87109375 C-333.2226037 388.68853687 -333.25380116 389.50598 -333.28594398 390.34819412 C-333.8006952 404.04899709 -334.00012209 417.72602764 -333.8125 431.4375 C-329.04256448 426.70927259 -324.9167586 421.74514316 -320.8125 416.4375 C-320.17957031 415.70273437 -319.54664063 414.96796875 -318.89453125 414.2109375 C-316.32868735 410.98161452 -314.79182252 408.80597298 -314.85546875 404.59375 C-315.32930495 401.59495886 -315.32930495 401.59495886 -316.06640625 398.8203125 C-317.97745099 390.1555756 -317.92346959 381.449324 -317.51953125 372.62890625 C-317.47206253 371.51165665 -317.42459381 370.39440704 -317.37568665 369.24330139 C-316.74852638 355.59606534 -315.63351734 341.98775535 -314.5 328.375 C-314.38918773 327.0225642 -314.27864559 325.67010625 -314.16836548 324.31762695 C-312.6192342 305.32573473 -310.93760207 286.34900965 -308.98120117 267.39428711 C-308.901521 266.61500351 -308.82184082 265.83571991 -308.73974609 265.03282166 C-308.52971244 262.98770608 -308.31523507 260.94304816 -308.1003418 258.8984375 C-307.83629904 255.72365363 -307.75770572 252.62107823 -307.8125 249.4375 C-306.4925 249.7675 -305.1725 250.0975 -303.8125 250.4375 C-302.51391893 276.53438643 -301.52737164 302.63635864 -300.75429535 328.75352478 C-300.68814195 330.97840988 -300.62084669 333.20325789 -300.55328369 335.42810059 C-300.06936985 351.43232874 -299.66021082 367.42417184 -299.8125 383.4375 C-296.59313192 380.46243323 -294.40810348 377.41295677 -292.17578125 373.6484375 C-291.18674805 371.98941406 -291.18674805 371.98941406 -290.17773438 370.296875 C-289.49342093 369.13545711 -288.8091769 367.97399833 -288.125 366.8125 C-287.42956614 365.64291406 -286.7336075 364.47363998 -286.03710938 363.3046875 C-282.79263486 357.94425289 -282.79263486 357.94425289 -279.8125 352.4375 C-281.4625 352.1075 -283.1125 351.7775 -284.8125 351.4375 C-285.46414968 347.3342354 -286.10773114 343.22974253 -286.75 339.125 C-286.93240234 337.97708984 -287.11480469 336.82917969 -287.30273438 335.64648438 C-287.47998047 334.50888672 -287.65722656 333.37128906 -287.83984375 332.19921875 C-288.00218506 331.16756592 -288.16452637 330.13591309 -288.33178711 329.07299805 C-289.43601978 320.72199309 -289.96912264 312.45207323 -289.98046875 304.03125 C-289.986549 302.59779236 -289.986549 302.59779236 -289.99275208 301.13537598 C-290.00212312 298.0693824 -290.00215848 295.00350585 -290 291.9375 C-290.0007251 290.89335937 -290.0014502 289.84921875 -290.00219727 288.7734375 C-290.00101296 273.34901103 -289.48468409 258.14626352 -288 242.7890625 C-287.75026396 239.65695638 -287.74272106 236.57755252 -287.8125 233.4375 C-290.2057897 233.4375 -292.24254768 235.87410581 -294.13305664 237.24804688 Z M-354.5 265.375 C-355.65886719 265.54902344 -356.81773437 265.72304688 -358.01171875 265.90234375 C-360.70796733 266.14568966 -360.70796733 266.14568966 -361.8125 267.4375 C-361.91493637 270.30494525 -361.9519093 273.14766672 -361.9453125 276.015625 C-361.94672241 276.91300385 -361.94813232 277.81038269 -361.94958496 278.73495483 C-361.95174935 281.71917455 -361.94534713 284.70329067 -361.9375 287.6875 C-361.9359491 288.71091492 -361.93439819 289.73432983 -361.93280029 290.78875732 C-361.84508366 347.24831568 -361.84508366 347.24831568 -356.8125 403.4375 C-356.4825 403.4375 -356.1525 403.4375 -355.8125 403.4375 C-355.72115784 402.38182831 -355.62981567 401.32615662 -355.53570557 400.23849487 C-354.65764338 390.09587069 -353.77577408 379.95358313 -352.89053726 369.81158257 C-352.43597181 364.60240683 -351.98257177 359.39313617 -351.53222656 354.18359375 C-351.00960276 348.1402955 -350.48307035 342.09734808 -349.953125 336.0546875 C-349.86597733 335.05986107 -349.77882965 334.06503464 -349.68904114 333.04006195 C-348.31921464 317.46969022 -346.77607945 301.92336283 -345.01861572 286.39181519 C-344.19973371 279.04366613 -343.60977862 271.84413563 -343.8125 264.4375 C-347.51838954 264.4375 -350.84483659 264.81424145 -354.5 265.375 Z M-250.8125 348.4375 C-251.11317383 349.00968262 -251.41384766 349.58186523 -251.72363281 350.17138672 C-258.74025357 363.45417332 -266.21116439 376.12511485 -274.8125 388.4375 C-275.37759277 389.24960937 -275.94268555 390.06171875 -276.52490234 390.8984375 C-279.47541211 395.13556835 -282.43777985 399.36412182 -285.41015625 403.5859375 C-288.58089234 408.09507025 -291.70259581 412.63628932 -294.8125 417.1875 C-298.35743919 422.37013722 -301.97780725 427.46276346 -305.8125 432.4375 C-305.4825 433.0975 -305.1525 433.7575 -304.8125 434.4375 C-289.89909275 424.42460367 -275.15166767 414.2645601 -260.8125 403.4375 C-259.48895508 402.44073242 -259.48895508 402.44073242 -258.13867188 401.42382812 C-245.36946111 391.79532275 -232.75854509 382.08282958 -220.8125 371.4375 C-225.09281014 366.88967048 -229.85998817 363.1657619 -234.8125 359.375 C-236.39603773 358.15521322 -237.97937651 356.93516811 -239.5625 355.71484375 C-240.67044922 354.86575439 -240.67044922 354.86575439 -241.80078125 353.99951172 C-243.47548732 352.69917562 -245.1172605 351.35656145 -246.75 350.00390625 C-248.64630672 348.23589482 -248.64630672 348.23589482 -250.8125 348.4375 Z " fill="#000000" transform="translate(486.8125,4.5625)"/>
<path d="M0 0 C3.4375 0.875 3.4375 0.875 5.4375 3.875 C5.54101562 6.1965332 5.54101562 6.1965332 5.34375 8.92578125 C5.28147217 9.92778564 5.21919434 10.92979004 5.1550293 11.9621582 C5.08324463 13.026521 5.01145996 14.09088379 4.9375 15.1875 C3.87871726 34.92069153 7.52695795 50.90523953 18.82421875 67.3984375 C19.44067261 68.3104895 19.44067261 68.3104895 20.06958008 69.2409668 C20.87652258 70.42356314 21.69982709 71.59521899 22.54174805 72.75317383 C25.71084738 77.38953692 25.99894677 80.45335238 25.4375 85.875 C23.375 88.4375 23.375 88.4375 20.4375 89.875 C16.2617437 90.28438787 14.49834122 89.59782809 11.046875 87.24609375 C-3.55252517 75.08739085 -9.35061141 57.84554683 -11.1640625 39.5234375 C-12.07998419 27.97485964 -12.39125759 10.8511946 -5.15234375 0.9453125 C-3.5625 -0.125 -3.5625 -0.125 0 0 Z " fill="#000000" transform="translate(11.5625,352.125)"/>
<path d="M0 0 C3.3961581 1.91956762 4.69036087 3.12913994 6 6.8125 C6 14.08829443 2.09482745 18.58274003 -2.65625 23.6953125 C-6.33068489 27.30850681 -10.29102408 30.49517253 -14.33984375 33.67675781 C-16.20571839 35.16396966 -18.04095393 36.68465943 -19.875 38.2109375 C-40.6322392 55.43029207 -40.6322392 55.43029207 -47.875 56.375 C-51 56 -51 56 -53.4375 53.875 C-55 51 -55 51 -55 48 C-53.21613355 42.64840066 -49.55321254 39.44911265 -45.1875 36.0625 C-35.02103552 27.89666507 -25.59998183 18.98309382 -16.98046875 9.19921875 C-7.32685792 -1.52066862 -7.32685792 -1.52066862 0 0 Z " fill="#000000" transform="translate(301,453)"/>
<path d="M0 0 C2.10358381 1.54262813 2.84054159 2.68108317 4 5 C4.88600191 13.6828187 1.1981281 19.74419058 -3.9375 26.4375 C-13.7134671 37.83748769 -30.2981801 50.14119709 -45.5625 52.375 C-48 52 -48 52 -50.3125 50.4375 C-52.65763142 47.05008795 -52.64816244 45.03301072 -52 41 C-48.60199078 37.81243215 -44.88677155 35.78086628 -40.75 33.6875 C-27.81177712 26.82410863 -19.58620211 18.51747934 -12.67578125 5.63671875 C-9.28446278 0.30072815 -6.26203502 -0.68313109 0 0 Z " fill="#000000" transform="translate(268,446)"/>
<path d="M0 0 C3.35463209 0.48921718 3.96846603 0.85383682 6 3.4375 C6.67260742 5.5402832 6.67260742 5.5402832 7.10546875 7.98828125 C7.28021729 8.90367676 7.45496582 9.81907227 7.63500977 10.76220703 C7.81733154 11.74817871 7.99965332 12.73415039 8.1875 13.75 C10.43286913 24.99372815 14.0145041 35.37159679 18.10595703 46.05517578 C23.42645871 60.23252571 23.42645871 60.23252571 23 66.4375 C22 68.25 22 68.25 20 69.4375 C15.3683061 70.03513792 13.19740351 70.2450512 9.3125 67.625 C-2.37640312 51.51326867 -8.19934263 24.11333946 -6 4.4375 C-4.19575486 1.17292742 -3.75771829 0.54800058 0 0 Z " fill="#000000" transform="translate(37,359.5625)"/>
</svg>
