<?xml version="1.0" encoding="UTF-8"?>
<svg version="1.1" xmlns="http://www.w3.org/2000/svg" width="512" height="512">
<path d="M0 0 C1.22315918 0.00563965 2.44631836 0.0112793 3.70654297 0.01708984 C30.52641525 0.37421669 56.95293247 8.27759764 77.3125 26.3125 C77.98152344 26.83972656 78.65054687 27.36695312 79.33984375 27.91015625 C103.02227736 46.99679086 112.4595549 79.90797866 115.90625 108.86328125 C116.59581689 116.38622885 116.51052831 123.95198245 116.5 131.5 C116.49939575 132.29829224 116.4987915 133.09658447 116.49816895 133.91906738 C116.44090726 161.8501984 113.46493074 189.50430037 105.3125 216.3125 C105.07192871 217.11075195 104.83135742 217.90900391 104.58349609 218.73144531 C93.69934294 254.05069727 71.74702781 283.28787604 42.3125 305.3125 C41.48105469 305.93898438 40.64960938 306.56546875 39.79296875 307.2109375 C-1.21311854 336.97004003 -52.12479563 348.90721455 -101.6875 354.3125 C-102.57872559 354.41691406 -103.46995117 354.52132813 -104.38818359 354.62890625 C-137.60189359 358.40088553 -173.67350053 358.94038984 -206.6875 353.3125 C-207.66847656 353.14621094 -208.64945313 352.97992188 -209.66015625 352.80859375 C-240.76737844 347.27568862 -270.52292347 336.00217049 -294.6875 315.3125 C-295.51894531 314.60351562 -296.35039062 313.89453125 -297.20703125 313.1640625 C-326.34092017 287.6551275 -340.95170405 252.05736152 -343.87353516 213.88183594 C-347.43631533 159.58884951 -334.91950001 104.96623819 -298.48608398 63.38525391 C-283.0854859 46.29680552 -283.0854859 46.29680552 -274.50390625 44.9765625 C-270.54567388 44.90796229 -268.25066058 44.98898222 -264.75 47 C-261.41257035 50.74196658 -260.46120651 53.55924544 -260.68359375 58.52734375 C-261.41212598 64.42762151 -264.73649243 67.02340996 -269.125 70.6875 C-270.59641838 71.99309264 -272.06517011 73.30169674 -273.53125 74.61328125 C-274.24667969 75.24443848 -274.96210938 75.8755957 -275.69921875 76.52587891 C-305.0195266 102.87239325 -316.90331744 145.62605361 -319.27783203 183.6340332 C-321.1946029 220.29007801 -314.86597845 258.19346932 -289.6875 286.3125 C-277.89526844 299.30648765 -264.59555102 308.11742358 -248.6875 315.3125 C-247.53121094 315.84617187 -246.37492187 316.37984375 -245.18359375 316.9296875 C-221.11709907 327.30920364 -193.48737988 331.39811088 -167.3984375 331.515625 C-166.34903992 331.52263931 -165.29964233 331.52965363 -164.21844482 331.53688049 C-160.83308589 331.55433482 -157.44790235 331.56073705 -154.0625 331.5625 C-152.32175201 331.56351212 -152.32175201 331.56351212 -150.5458374 331.56454468 C-87.79952148 331.5067055 -14.95421132 322.11662738 34.3125 279.3125 C35.55580078 278.23355469 35.55580078 278.23355469 36.82421875 277.1328125 C39.35408636 274.89351162 41.83959447 272.61444903 44.3125 270.3125 C45.42238281 269.30123047 45.42238281 269.30123047 46.5546875 268.26953125 C74.66435408 241.61036348 85.86888358 202.66809205 90.3125 165.3125 C90.45606934 164.13228271 90.45606934 164.13228271 90.60253906 162.92822266 C94.2974824 128.30302786 93.74619743 85.60228984 71.97802734 56.53027344 C57.20657863 38.29586325 36.32168355 28.52044759 13.3125 25.3125 C-25.67347799 22.31786315 -61.5668143 37.29800062 -91.6875 61.3125 C-91.06520508 61.40225098 -90.44291016 61.49200195 -89.80175781 61.58447266 C-78.60667121 63.23395055 -67.5096929 65.04234207 -56.625 68.1875 C-55.82416992 68.40744629 -55.02333984 68.62739258 -54.19824219 68.85400391 C-48.7083002 70.52947536 -44.50122169 72.95617849 -40.6875 77.3125 C-38.86467753 81.55162203 -39.37921568 85.38764704 -40.8125 89.6875 C-42.95785165 92.69099231 -44.25804063 93.94071625 -47.6875 95.3125 C-53.37419736 95.64207677 -57.81391714 94.91806486 -63.1875 93 C-82.96174645 86.47168235 -103.22723055 85.36293679 -123.89916992 87.16894531 C-128.77308809 87.52787913 -131.72006756 87.54850635 -135.6875 84.3125 C-136.19700195 83.91200439 -136.70650391 83.51150879 -137.23144531 83.09887695 C-139.30490595 80.55502861 -139.52389517 78.23968724 -140.08203125 75.01953125 C-140.31212891 73.75657227 -140.54222656 72.49361328 -140.77929688 71.19238281 C-140.95513306 70.19495056 -140.95513306 70.19495056 -141.13452148 69.17736816 C-143.82332267 54.07823176 -147.13896679 40.52904427 -155.484375 27.41796875 C-157.24712718 24.33315243 -157.75551445 21.84925129 -157.6875 18.3125 C-156.04960184 13.67178855 -153.99203484 10.74549795 -149.6875 8.3125 C-145.80658808 7.46628612 -142.40578637 7.46755753 -138.796875 9.2421875 C-127.81707235 17.60068592 -121.93581741 35.09208129 -120.0234375 48.35546875 C-119.91257813 49.33128906 -119.80171875 50.30710938 -119.6875 51.3125 C-118.83929688 50.63445312 -117.99109375 49.95640625 -117.1171875 49.2578125 C-92.68339128 29.82479756 -66.54059307 12.72915572 -36.0625 4.5625 C-35.32346436 4.36374268 -34.58442871 4.16498535 -33.82299805 3.96020508 C-22.61842077 1.10739718 -11.54885562 -0.05633588 0 0 Z " fill="#000000" transform="translate(369.6875,77.6875)"/>
</svg>
