<?xml version="1.0" encoding="UTF-8"?>
<svg version="1.1" xmlns="http://www.w3.org/2000/svg" width="512" height="512">
<path d="M0 0 C21.95686747 13.73186727 38.40951868 44.04613548 51 66 C51.65355469 67.12921875 52.30710938 68.2584375 52.98046875 69.421875 C60.73529763 83.17170874 66.88756105 97.93475065 71.54296875 113.00390625 C71.75471741 113.67944046 71.96646606 114.35497467 72.18463135 115.05097961 C73.22083856 118.36453838 74.2209923 121.68172334 75.16162109 125.02368164 C77.39079327 132.30845357 79.18726124 136.16370545 85.96459961 139.86132812 C88.62383141 141.3489924 89.8210995 143.02413799 91.25 145.6875 C91.71664062 146.54988281 92.18328125 147.41226563 92.6640625 148.30078125 C93.10492188 149.19152344 93.54578125 150.08226562 94 151 C94.44085938 151.88042969 94.88171875 152.76085937 95.3359375 153.66796875 C98.06538619 159.39981101 100.09928621 165.16187676 101.8125 171.2734375 C104.61686893 177.71241616 110.74825814 180.98275434 116.4375 184.625 C128.19184345 192.31877372 138.96083281 200.77419295 149.19921875 210.38671875 C151.77716982 212.79208732 154.40803201 215.11745317 157.0625 217.4375 C162.79180928 222.59113705 167.90331898 228.23664246 173 234 C173.47695313 234.53222168 173.95390625 235.06444336 174.4453125 235.61279297 C219.29466691 285.75353178 246.84723793 351.33855425 244 419 C242.71637059 435.80484838 239.26358293 452.21811195 233.5625 468.0625 C233.28631836 468.8361792 233.01013672 469.6098584 232.72558594 470.40698242 C227.79027396 483.54077546 227.79027396 483.54077546 221.68359375 486.734375 C220.13196938 487.1902031 218.56847301 487.60603318 217 488 C215.88125488 488.31259766 214.76250977 488.62519531 213.60986328 488.94726562 C209.44129505 490.10320263 205.25442231 491.18231593 201.0625 492.25 C200.29302032 492.44631012 199.52354065 492.64262024 198.73074341 492.84487915 C175.14403943 498.83937215 151.59494162 503.82785317 127.5 507.3125 C126.23626053 507.49756607 126.23626053 507.49756607 124.94699097 507.68637085 C102.02719275 511.00597944 79.22682243 512.35564653 56.07226562 512.31567383 C52.26663499 512.31251381 48.46178558 512.33609833 44.65625 512.36132812 C-9.45276925 512.50125774 -69.87651249 503.51555588 -110 464 C-111.28003906 462.75669922 -111.28003906 462.75669922 -112.5859375 461.48828125 C-122.76094889 451.00834049 -132.28536667 438.15479426 -132.12939453 423.19384766 C-130.44052871 381.50754065 -117.5865263 339.1455272 -99 302 C-98.58927246 301.1637207 -98.17854492 300.32744141 -97.75537109 299.46582031 C-91.45069513 286.68380709 -84.01396165 274.77447631 -76 263 C-75.54592773 262.3306543 -75.09185547 261.66130859 -74.62402344 260.97167969 C-66.65219722 249.3010228 -57.55512432 238.72053706 -48.0546875 228.2734375 C-46.13063862 226.14454691 -44.24854188 223.98580858 -42.375 221.8125 C-38.02047062 216.82731464 -33.40472474 212.18788519 -28.4375 207.8125 C-27.7878125 207.22597656 -27.138125 206.63945312 -26.46875 206.03515625 C-24.46697581 204.38495949 -22.49959159 202.98502763 -20.34375 201.55859375 C-13.30766504 196.86267377 -13.30766504 196.86267377 -9.43798828 189.67822266 C-8.92383526 182.68874188 -9.51713917 174.21053825 -13 168 C-21.14678243 160.99584461 -33.23702082 155.57658817 -44 155 C-44.90621094 154.938125 -45.81242187 154.87625 -46.74609375 154.8125 C-58.46235121 154.3536013 -69.07370705 157.27868763 -79.8125 161.75 C-85.61744361 164.07918855 -90.78055014 165.13271599 -97 164 C-101.22416099 161.67240109 -102.48581333 159.45532291 -104 155 C-110.67715794 120.70743578 -104.46209847 82.35904956 -85.4453125 52.91015625 C-70.7934153 31.36927688 -30.22936548 -8.19699095 0 0 Z M-21.75 34.5625 C-22.4630127 34.93383057 -23.17602539 35.30516113 -23.91064453 35.68774414 C-33.41916467 40.71052083 -41.16555003 46.62332257 -49 54 C-49.61746094 54.54140625 -50.23492187 55.0828125 -50.87109375 55.640625 C-68.48152283 71.74623682 -76.68365708 98.18515644 -77.8125 121.3125 C-77.9076665 123.87641299 -77.96553954 126.43426186 -78 129 C-76.27054347 128.85764543 -74.54144346 128.71095618 -72.8125 128.5625 C-71.84957031 128.48128906 -70.88664062 128.40007812 -69.89453125 128.31640625 C-67.07510061 128.057967 -67.07510061 128.057967 -64.64257812 127.49511719 C-44.43787592 123.70953551 -21.48292448 128.11789068 -4.14941406 139.18115234 C-1.3528151 141.10504837 1.35142919 143.09900555 4.03515625 145.1796875 C7.45726561 147.28074542 10.01428369 147.77990042 14 148 C14.66 147.67 15.32 147.34 16 147 C13.57983655 131.2550286 -3.03864166 114.40949342 -15.0625 104.5 C-19.36434457 100.83885569 -20.8104844 98.70564036 -21.4375 93.0625 C-21.25994127 88.7849487 -19.81013746 86.26583542 -17 83 C-13.24633552 79.68794311 -9.45304121 79.3528928 -4.60546875 79.5390625 C8.20357395 81.80513003 19.60916499 98.11120053 26.70117188 108.09716797 C33.01839098 117.35213145 38.78864311 127.04745618 43.68359375 137.12890625 C44.86139418 139.18383163 44.86139418 139.18383163 47.16015625 139.77734375 C47.76730469 139.85082031 48.37445313 139.92429687 49 140 C45.93823123 102.04307246 17.38293566 61.56502339 -7.03515625 33.6171875 C-12.26384604 29.31365356 -16.36126659 31.68078715 -21.75 34.5625 Z M56.25390625 166.953125 C54.63645508 167.2610498 54.63645508 167.2610498 52.98632812 167.57519531 C51.2915332 167.90922363 51.2915332 167.90922363 49.5625 168.25 C48.40556641 168.47526367 47.24863281 168.70052734 46.05664062 168.93261719 C32.17739612 171.31676303 32.17739612 171.31676303 19 176 C19 177.32 19 178.64 19 180 C29.95531538 179.47341041 40.81052252 178.58973871 51.69897461 177.27050781 C53.98801901 176.99389518 56.27806665 176.72699748 58.56835938 176.4609375 C60.03392052 176.28701659 61.49941813 176.11255916 62.96484375 175.9375 C64.2705835 175.78152344 65.57632324 175.62554687 66.92163086 175.46484375 C69.90440185 175.17640452 69.90440185 175.17640452 72 174 C70.73025028 169.58477891 70.73025028 169.58477891 68 166 C63.94833399 165.72962667 60.22879135 166.19308837 56.25390625 166.953125 Z M61.68359375 203.42578125 C60.38349869 203.57403854 59.08340363 203.72229584 57.74391174 203.87504578 C55.02319451 204.18658841 52.30326687 204.50416454 49.58374023 204.82592773 C46.10876775 205.23630505 42.63198503 205.62826858 39.15437222 206.01554585 C35.80864494 206.39126532 32.46503428 206.78447863 29.12109375 207.17578125 C27.87839218 207.31341385 26.63569061 207.45104645 25.35533142 207.59284973 C24.19965164 207.7327684 23.04397186 207.87268707 21.85327148 208.0168457 C20.84070786 208.13453812 19.82814423 208.25223053 18.78489685 208.37348938 C13.04755145 209.66420427 8.96752582 213.54108324 4.625 217.3125 C3.72285767 218.09113403 3.72285767 218.09113403 2.80249023 218.88549805 C-9.43910227 229.53194045 -21.54279303 240.57009648 -32 253 C-32.46180664 253.5480127 -32.92361328 254.09602539 -33.39941406 254.66064453 C-44.85225454 268.31651087 -54.93646791 282.64637664 -64 298 C-64.34740234 298.58120605 -64.69480469 299.16241211 -65.05273438 299.76123047 C-86.19245356 335.29455558 -98.17602177 375.06509902 -103 416 C-103.14824219 416.81726563 -103.29648438 417.63453125 -103.44921875 418.4765625 C-104.28355709 425.99928523 -100.27594094 430.99065029 -95.83984375 436.60546875 C-69.44310551 468.59799369 -27.80314323 478.8272875 11.78173828 482.72265625 C20.8386049 483.50316 29.91407279 483.8067935 39 484 C40.29421875 484.02964844 41.5884375 484.05929687 42.921875 484.08984375 C46.61745756 484.12746846 50.30571814 484.08554654 54 484 C54.86625 483.98211426 55.7325 483.96422852 56.625 483.94580078 C93.62382034 483.09418143 130.33238703 478.80380607 166.5 471 C167.25083862 470.83859528 168.00167725 470.67719055 168.77526855 470.51089478 C173.8668541 469.40712889 178.93761335 468.23046425 184 467 C185.20245361 466.71189453 185.20245361 466.71189453 186.42919922 466.41796875 C188.88568285 465.82035453 191.33372275 465.19570228 193.78125 464.5625 C194.90484924 464.29095093 194.90484924 464.29095093 196.05114746 464.01391602 C200.93693146 462.70579665 203.70806967 461.03081673 207 457 C218.75601887 430.84441303 217.40607668 397.43628034 212 370 C211.79914795 368.93845703 211.79914795 368.93845703 211.59423828 367.85546875 C199.61401356 306.16820253 159.35588692 248.4352328 107.58984375 213.30859375 C90.95797729 202.1249517 81.8795657 201.05558348 61.68359375 203.42578125 Z " fill="#000000" transform="translate(200,0)"/>
<path d="M0 0 C4.06942185 5.30257999 4.32851347 8.8966442 4.1875 15.4375 C4.17847656 16.23027344 4.16945313 17.02304688 4.16015625 17.83984375 C4.13667012 19.78919281 4.10080137 21.73838575 4.0625 23.6875 C5.09020508 23.79239746 5.09020508 23.79239746 6.13867188 23.89941406 C9.28186346 24.22943857 12.42194739 24.58327488 15.5625 24.9375 C16.64015625 25.04707031 17.7178125 25.15664062 18.828125 25.26953125 C26.1495799 26.11774859 32.78817538 27.20853009 38.0625 32.8125 C39.97399268 38.30804144 39.797152 43.59954168 37.875 49.0625 C35.48432199 52.52486126 32.8219239 54.80778805 29.0625 56.6875 C27.29396708 56.78688863 25.52131725 56.81719223 23.75 56.8125 C22.80511719 56.81507813 21.86023438 56.81765625 20.88671875 56.8203125 C15.26488224 56.62506997 9.66803116 56.1481136 4.0625 55.6875 C3.84447351 61.11296133 3.64781636 66.53863284 3.47045898 71.96557617 C3.4072422 73.80953391 3.33830899 75.65330528 3.26342773 77.49682617 C3.15646323 80.15514542 3.07044545 82.81346864 2.98828125 85.47265625 C2.95092361 86.28960464 2.91356598 87.10655304 2.87507629 87.94825745 C2.71848801 93.98276729 3.47142881 98.80489883 7.66821289 103.47387695 C8.2636792 103.93238037 8.85914551 104.39088379 9.47265625 104.86328125 C14.92087005 109.33064231 19.86727953 114.26985848 24.8527832 119.23754883 C26.486582 120.86166155 28.13077776 122.47473949 29.77539062 124.08789062 C38.5783323 132.80060866 46.68030836 141.9055983 52.0625 153.1875 C52.619375 154.3321875 53.17625 155.476875 53.75 156.65625 C56.68472457 163.43406627 57.30628346 170.95213166 55.4140625 178.15625 C51.12713001 188.5621374 44.04113832 195.64579954 34.0625 200.6875 C24.89592986 204.41071182 16.51478331 205.85187774 6.6875 205.75 C5.85605469 205.74548828 5.02460938 205.74097656 4.16796875 205.73632812 C2.13278103 205.72463164 0.09763077 205.70669935 -1.9375 205.6875 C-1.96328125 206.821875 -1.9890625 207.95625 -2.015625 209.125 C-2.5246923 224.383489 -2.5246923 224.383489 -6.9375 230.6875 C-10.84385296 234.29791713 -14.04792191 234.19253039 -19.1796875 234.03515625 C-24.46235276 233.3692112 -27.53087987 231.2395461 -31.12890625 227.26953125 C-34.09853009 222.64367587 -33.20061842 217.27223524 -32.9375 212 C-32.83555937 209.93442808 -32.75138972 207.86788002 -32.6875 205.80078125 C-32.64109375 204.89110596 -32.5946875 203.98143066 -32.546875 203.04418945 C-32.71807981 200.54890265 -32.71807981 200.54890265 -34.7565918 198.95068359 C-37.64815413 197.27588862 -40.61783586 196.16413768 -43.75 195 C-49.3688993 192.83021581 -54.7853051 190.41417578 -60.125 187.625 C-60.74802002 187.30893799 -61.37104004 186.99287598 -62.01293945 186.66723633 C-66.61439844 184.20525697 -69.60054887 181.36140226 -71.9375 176.6875 C-72.45863171 171.45909666 -72.58023534 167.04713246 -70.3125 162.25 C-66.88198314 158.54865286 -64.0797279 156.00685587 -58.9765625 155.24609375 C-53.21471492 155.38586698 -48.15316445 158.58415547 -43.125 161.125 C-41.55202148 161.8994043 -41.55202148 161.8994043 -39.94726562 162.68945312 C-37.2707937 164.00956984 -34.60211377 165.34365609 -31.9375 166.6875 C-31.2775 167.0175 -30.6175 167.3475 -29.9375 167.6875 C-29.94547607 166.83164307 -29.95345215 165.97578613 -29.96166992 165.09399414 C-29.99909697 157.75975018 -29.89261175 150.45029849 -29.61328125 143.12109375 C-29.5539303 141.46549859 -29.4946864 139.8098996 -29.43554688 138.15429688 C-29.34435962 135.61958779 -29.24828695 133.08548748 -29.13842773 130.55151367 C-29.03202143 128.05417902 -28.94591371 125.55681343 -28.86328125 123.05859375 C-28.82592361 122.30541367 -28.78856598 121.55223358 -28.75007629 120.77622986 C-28.58135654 114.84384846 -29.91200519 111.08041272 -33.72753906 106.57275391 C-34.37948242 105.94288574 -35.03142578 105.31301758 -35.703125 104.6640625 C-36.42886719 103.9525 -37.15460938 103.2409375 -37.90234375 102.5078125 C-39.03349609 101.42113281 -39.03349609 101.42113281 -40.1875 100.3125 C-69.33043752 72.03418716 -69.33043752 72.03418716 -70.3125 53.375 C-70.08488614 45.93961404 -67.35296582 39.80319395 -62.3125 34.375 C-52.43025096 25.44504042 -40.65358734 23.86978049 -27.9375 21.6875 C-26.95408795 18.73726386 -26.77571836 16.52076705 -26.625 13.4375 C-26.16501855 8.08756185 -25.16191069 4.98671425 -21.9375 0.6875 C-15.5322626 -4.23960569 -6.47542248 -5.09767302 0 0 Z M-37.9375 55.6875 C-37.04942313 57.08828104 -36.15158741 58.48287637 -35.25 59.875 C-34.75113281 60.65230469 -34.25226563 61.42960937 -33.73828125 62.23046875 C-31.70628438 65.00297641 -29.41507842 67.31121951 -26.9375 69.6875 C-26.91064905 67.20826199 -26.89073453 64.7293116 -26.875 62.25 C-26.86662109 61.54294922 -26.85824219 60.83589844 -26.84960938 60.10742188 C-26.84096412 58.30056441 -26.88529989 56.49362397 -26.9375 54.6875 C-27.96869607 53.44098985 -27.96869607 53.44098985 -30.1875 53.5 C-33.14948746 53.70195369 -35.22323727 54.53530458 -37.9375 55.6875 Z M1.0625 138.6875 C0.40510089 147.85586972 -0.04143897 156.99348452 -0.0625 166.1875 C-0.06701172 167.01805908 -0.07152344 167.84861816 -0.07617188 168.7043457 C-0.43486629 172.50295088 -0.43486629 172.50295088 1.0625 175.6875 C9.14454182 176.20064551 16.43701117 175.22534218 23.1875 170.5 C23.80625 169.901875 24.425 169.30375 25.0625 168.6875 C23.68104539 163.22785903 21.17194371 160.01743745 17.5 155.9375 C16.96785889 155.33276855 16.43571777 154.72803711 15.88745117 154.10498047 C14.28753029 152.29149712 12.6754553 150.48938713 11.0625 148.6875 C10.14239772 147.64396168 9.22306812 146.59974131 8.3046875 145.5546875 C5.23488842 142.07358747 5.23488842 142.07358747 2.0625 138.6875 C1.7325 138.6875 1.4025 138.6875 1.0625 138.6875 Z " fill="#000000" transform="translate(277.9375,229.3125)"/>
</svg>
