<?xml version="1.0" encoding="UTF-8"?>
<svg version="1.1" xmlns="http://www.w3.org/2000/svg" width="512" height="512">
<path d="M0 0 C5.92030693 0.00010291 11.84049741 -0.01373801 17.76077652 -0.03077221 C22.41441368 -0.04196674 27.06802283 -0.04391721 31.72167206 -0.04339027 C33.90452234 -0.04455188 36.0873738 -0.04886796 38.27021027 -0.05672264 C91.11501594 -0.22970321 91.11501594 -0.22970321 107.03515625 14.22045898 C116.86465481 24.42801518 118.96640683 37.4866926 118.91015625 51.31420898 C118.8456413 53.45928924 118.76400207 55.6039023 118.66796875 57.74780273 C118.6222876 58.95106201 118.57660645 60.15432129 118.52954102 61.39404297 C118.04101929 72.22930736 117.03003386 83.00632865 116.00891113 93.80230713 C114.32042178 111.66394847 112.99819059 129.22501325 113.79296875 147.18530273 C113.83695801 148.21365234 113.88094727 149.24200195 113.92626953 150.30151367 C114.67697024 165.7548446 116.74926642 180.9966846 119.1159668 196.27148438 C121.97644126 214.91303551 121.97644126 214.91303551 119.23046875 220.18530273 C116.04552021 222.79859384 113.87960997 223.112327 109.79296875 223.18530273 C107.48046875 222.56030273 107.48046875 222.56030273 105.79296875 221.18530273 C103.12734219 215.50337497 102.64686399 209.46768791 101.79296875 203.31030273 C101.62796875 202.19010742 101.46296875 201.06991211 101.29296875 199.91577148 C98.3498447 179.10696471 97.42476309 158.43738126 97.48046875 137.43530273 C97.48062988 136.18082336 97.48079102 134.92634399 97.48095703 133.6338501 C97.49813811 114.24960664 98.3695726 95.06274549 99.91566467 75.74766541 C99.98087814 74.93173416 100.04609161 74.11580292 100.11328125 73.27514648 C100.17660141 72.48463394 100.23992157 71.6941214 100.30516052 70.87965393 C100.84330972 63.96300814 101.12825032 57.06139232 101.16796875 50.12280273 C101.18150391 49.2254541 101.19503906 48.32810547 101.20898438 47.40356445 C101.17115919 42.01662812 100.19660222 37.41953288 98.4909668 32.31030273 C97.79296875 30.18530273 97.79296875 30.18530273 97.23046875 27.24780273 C93.46179563 21.84057608 83.6920104 21.70440771 77.54296875 20.56030273 C76.8893335 20.43703613 76.23569824 20.31376953 75.56225586 20.18676758 C63.3513017 18.0683465 50.93523018 18.03526748 38.57861328 18.04003906 C37.00240501 18.03703729 35.42619746 18.03363247 33.84999084 18.02986145 C29.59719146 18.02109409 25.34441226 18.01868566 21.09160471 18.01804566 C18.40322958 18.01732796 15.71485934 18.01517968 13.02648544 18.01254845 C3.55378657 18.00330017 -5.91889833 17.99921059 -15.39160156 18 C-23.11004752 18.00052732 -30.82844213 17.99360643 -38.546875 17.97949219 C-146.49845739 14.54114289 -146.49845739 14.54114289 -239.81542969 29.74023438 C-240.2746582 30.21710693 -240.73388672 30.69397949 -241.20703125 31.18530273 C-240.28591553 31.16959229 -240.28591553 31.16959229 -239.34619141 31.15356445 C-236.50818128 31.11146064 -233.67023724 31.08580651 -230.83203125 31.06030273 C-229.86652344 31.04354492 -228.90101563 31.02678711 -227.90625 31.00952148 C-216.57913278 30.93350056 -205.70527325 32.50347823 -196.90625 40.19702148 C-190.69483066 46.70368197 -188.15598556 52.73917991 -187.83203125 61.68530273 C-188.04718816 68.37387616 -189.56000666 74.24309473 -193.45703125 79.74780273 C-196.20703125 82.18530273 -196.20703125 82.18530273 -199.76953125 82.81030273 C-203.76057361 82.08465867 -204.7959057 81.37884652 -207.20703125 78.18530273 C-207.37890625 75.30249023 -207.37890625 75.30249023 -206.95703125 72.06030273 C-206.83457031 70.91432617 -206.71210938 69.76834961 -206.5859375 68.58764648 C-206.46089844 67.46487305 -206.33585937 66.34209961 -206.20703125 65.18530273 C-205.57761194 58.7017514 -205.57761194 58.7017514 -207.64453125 52.74780273 C-214.54848527 48.53807467 -221.44937234 47.74283863 -229.39453125 47.93530273 C-230.68907227 47.94303711 -230.68907227 47.94303711 -232.00976562 47.95092773 C-236.60670404 48.00720242 -240.6079101 48.41878254 -245.20703125 49.18530273 C-245.20703125 59.08530273 -245.20703125 68.98530273 -245.20703125 79.18530273 C-239.26703125 80.17530273 -239.26703125 80.17530273 -233.20703125 81.18530273 C-219.78800969 84.8227431 -207.13417574 91.01671539 -199.9296875 103.37670898 C-196.01772338 111.38161777 -195.31681157 118.41072424 -198.1796875 126.88061523 C-199.93227741 130.81228081 -202.26610217 134.21483819 -206.20703125 136.18530273 C-210.10644013 136.54635911 -212.37621986 136.72533014 -215.70703125 134.56030273 C-217.20703125 132.18530273 -217.20703125 132.18530273 -217.14453125 129.43530273 C-216.41550322 126.90800555 -215.58595322 124.66188487 -214.58203125 122.24780273 C-213.0213591 118.25431812 -213.05516951 115.38137049 -214.20703125 111.18530273 C-215.66494985 109.39144281 -215.66494985 109.39144281 -217.20703125 108.18530273 C-217.20703125 107.52530273 -217.20703125 106.86530273 -217.20703125 106.18530273 C-217.91472656 105.91588867 -218.62242187 105.64647461 -219.3515625 105.36889648 C-222.29988645 104.14681419 -225.06897371 102.73037164 -227.89453125 101.24780273 C-233.2078342 98.55493916 -238.43924333 96.64001031 -244.20703125 95.18530273 C-244.00787109 96.6180957 -244.00787109 96.6180957 -243.8046875 98.07983398 C-241.91989179 111.87873978 -241.069105 125.25475158 -241.20703125 139.18530273 C-240.00949219 139.30647461 -238.81195313 139.42764648 -237.578125 139.55249023 C-224.12114923 141.25200709 -213.89791619 149.51983444 -205.22265625 159.42358398 C-199.35127069 167.46829249 -197.02753788 176.39601468 -196.89453125 186.18530273 C-196.86552734 186.89686523 -196.83652344 187.60842773 -196.80664062 188.34155273 C-196.76418921 191.84216138 -196.9126203 193.7923363 -199.0390625 196.63061523 C-201.81948777 198.62450579 -203.80118428 199.04339244 -207.20703125 199.18530273 C-209.32421875 198.47436523 -209.32421875 198.47436523 -211.20703125 197.18530273 C-211.96484375 195.15405273 -211.96484375 195.15405273 -212.33203125 192.68530273 C-212.4815625 191.79069336 -212.63109375 190.89608398 -212.78515625 189.97436523 C-212.924375 189.05397461 -213.06359375 188.13358398 -213.20703125 187.18530273 C-214.68080866 178.0970087 -217.09978467 169.56698353 -224.20703125 163.18530273 C-229.34167372 159.50663731 -234.33313506 156.53486121 -240.20703125 154.18530273 C-239.87703125 167.05530273 -239.54703125 179.92530273 -239.20703125 193.18530273 C-235.24703125 194.83530273 -231.28703125 196.48530273 -227.20703125 198.18530273 C-214.27218688 205.06973339 -204.89140001 215.13219647 -200.20703125 229.18530273 C-199.46857879 236.30609427 -199.64074272 241.71256771 -203.8203125 247.66186523 C-206.08733148 250.15239313 -207.81095405 251.13473969 -211.14453125 251.56030273 C-214.20703125 251.18530273 -214.20703125 251.18530273 -216.40625 249.70874023 C-219.06649922 245.98092896 -218.39669792 242.86584546 -218.08203125 238.43530273 C-217.71139138 230.93279675 -217.71139138 230.93279675 -220.89453125 224.31030273 C-226.75833476 218.03739665 -233.41126881 215.08318396 -241.20703125 211.18530273 C-241.20703125 225.70530273 -241.20703125 240.22530273 -241.20703125 255.18530273 C-236.58703125 256.83530273 -231.96703125 258.48530273 -227.20703125 260.18530273 C-215.64959959 266.42897271 -206.01052103 274.01613066 -201.26953125 286.74780273 C-199.59494706 292.68211044 -198.95479658 298.39318664 -201.89453125 303.99780273 C-204.17240374 307.13757293 -205.83928737 309.26087766 -209.20703125 311.18530273 C-212.33203125 311.24780273 -212.33203125 311.24780273 -215.20703125 310.18530273 C-218.60613838 306.01865529 -218.33297406 302.46468642 -217.95703125 297.37280273 C-217.75593258 290.6061291 -217.75593258 290.6061291 -220.70703125 284.68530273 C-226.40924331 279.38448862 -234.19465298 276.36985957 -241.20703125 273.18530273 C-241.86703125 272.85530273 -242.52703125 272.52530273 -243.20703125 272.18530273 C-243.20703125 286.04530273 -243.20703125 299.90530273 -243.20703125 314.18530273 C-240.23703125 314.84530273 -237.26703125 315.50530273 -234.20703125 316.18530273 C-220.74633998 321.45572346 -209.14605451 333.06317657 -202.86328125 345.93920898 C-200.42976233 351.85035798 -199.28730183 356.96731121 -201.20703125 363.18530273 C-202.66862886 366.19075237 -204.13268569 368.64812995 -207.20703125 370.18530273 C-212.48669906 370.63463616 -212.48669906 370.63463616 -214.81640625 369.18139648 C-216.96615103 366.09566733 -217.05961224 362.64210594 -217.51953125 358.99780273 C-218.58984836 352.00154787 -219.93162963 347.18494472 -225.20703125 342.18530273 C-225.79484375 341.57557617 -226.38265625 340.96584961 -226.98828125 340.33764648 C-232.43557526 335.08011476 -236.83079966 333.53813528 -244.20703125 330.18530273 C-243.21703125 352.46030273 -243.21703125 352.46030273 -242.20703125 375.18530273 C-237.25703125 377.16530273 -232.30703125 379.14530273 -227.20703125 381.18530273 C-223.62247657 383.45140052 -220.46946725 385.56267309 -217.20703125 388.18530273 C-216.47742188 388.74088867 -215.7478125 389.29647461 -214.99609375 389.86889648 C-209.91856965 393.95545399 -206.98811082 398.32474451 -204.20703125 404.18530273 C-203.87703125 404.84530273 -203.54703125 405.50530273 -203.20703125 406.18530273 C-202.39440997 412.72623796 -203.34738437 416.86524892 -207.20703125 422.18530273 C-210.01415598 425.0682957 -211.82507522 426.07617244 -215.70703125 427.18530273 C-219.20703125 427.18530273 -219.20703125 427.18530273 -222.20703125 425.68530273 C-224.20703125 423.18530273 -224.20703125 423.18530273 -224.26953125 419.74780273 C-223.16103415 416.03107715 -221.84105659 413.9892652 -219.20703125 411.18530273 C-220.59004433 405.48037379 -224.62661845 402.45144001 -229.20703125 399.18530273 C-231.62778982 397.89112538 -234.0356036 396.65172151 -236.50390625 395.45874023 C-237.47336182 394.98247192 -237.47336182 394.98247192 -238.46240234 394.49658203 C-240.04168653 393.72153591 -241.6240495 392.95276859 -243.20703125 392.18530273 C-243.16239921 396.68428924 -243.09208093 401.18198011 -242.99951172 405.68017578 C-242.97155439 407.20545695 -242.95021638 408.7308762 -242.93603516 410.25634766 C-243.06698712 425.00673557 -243.06698712 425.00673557 -236.71704102 437.84863281 C-229.95165041 443.17590357 -221.18347372 444.62110197 -212.83203125 445.31030273 C-211.96408936 445.39030518 -211.09614746 445.47030762 -210.2019043 445.55273438 C-204.47872372 446.05840733 -198.75867473 446.37431769 -193.01953125 446.62280273 C-184.74734617 446.98489942 -176.59956497 447.91059086 -168.38891602 448.96069336 C-162.3451297 449.72202921 -156.30340726 450.38441433 -150.234375 450.90795898 C-149.5548175 450.96661133 -148.87526001 451.02526367 -148.17510986 451.08569336 C-146.79351829 451.2046942 -145.4119265 451.3236924 -144.03033447 451.44268799 C-134.00247409 452.31384157 -124.04409308 453.30875713 -114.14453125 455.18530273 C-113.32500977 455.33926514 -112.50548828 455.49322754 -111.66113281 455.65185547 C-106.86156302 456.63386333 -102.56034754 457.90792519 -98.20703125 460.18530273 C-96.60924853 463.70042472 -95.77637745 465.8215657 -96.95703125 469.56030273 C-98.20703125 471.18530273 -98.20703125 471.18530273 -100.20703125 472.18530273 C-112.09239946 472.79653922 -123.88847553 471.68686635 -135.70703125 470.56030273 C-137.61340074 470.38275419 -139.51981508 470.20568666 -141.42626953 470.02905273 C-144.5372962 469.74024792 -147.64819726 469.45029641 -150.75881958 469.15716553 C-158.35272789 468.44285976 -165.94939168 467.76443915 -173.5479126 467.10147095 C-178.58385983 466.66169961 -183.61888539 466.21176612 -188.6537056 465.7592907 C-192.19839168 465.44112214 -195.74333419 465.12719395 -199.28930664 464.82366943 C-242.13389554 461.1448659 -242.13389554 461.1448659 -254.20703125 447.18530273 C-254.70203125 445.70030273 -254.70203125 445.70030273 -255.20703125 444.18530273 C-256.28339844 444.23170898 -257.35976563 444.27811523 -258.46875 444.32592773 C-272.76910176 444.7567801 -285.04141898 442.5494377 -295.94921875 432.59545898 C-301.66829293 426.54917409 -304.39998048 419.46813089 -304.64453125 411.18530273 C-304.12696129 398.16257468 -298.63486899 390.42780568 -289.72265625 381.43530273 C-288.20703125 380.18530273 -288.20703125 380.18530273 -286.20703125 380.18530273 C-286.20703125 379.52530273 -286.20703125 378.86530273 -286.20703125 378.18530273 C-286.88765625 377.99967773 -287.56828125 377.81405273 -288.26953125 377.62280273 C-296.47381149 373.60794219 -300.13429836 366.47660263 -303.20703125 358.18530273 C-306.00710235 349.12520006 -304.5511499 339.46707279 -300.20703125 331.18530273 C-296.98090516 326.56781421 -293.40889187 322.56329616 -288.20703125 320.18530273 C-287.54703125 320.18530273 -286.88703125 320.18530273 -286.20703125 320.18530273 C-286.20703125 319.52530273 -286.20703125 318.86530273 -286.20703125 318.18530273 C-287.25890625 317.84499023 -287.25890625 317.84499023 -288.33203125 317.49780273 C-296.18831238 313.91123961 -301.27914463 307.30537843 -304.28515625 299.32202148 C-307.39041562 288.43949888 -306.39957177 279.87807549 -301.015625 269.92358398 C-296.91469265 263.71461298 -291.83314325 260.35717737 -285.20703125 257.18530273 C-285.87089844 256.6400293 -286.53476562 256.09475586 -287.21875 255.53295898 C-293.87552469 249.84797622 -299.55602914 244.07157877 -301.20703125 235.18530273 C-302.02528048 224.77609943 -301.454255 215.02019835 -295.1484375 206.35717773 C-291.29847686 201.91641369 -287.40624529 197.9751249 -282.20703125 195.18530273 C-281.54703125 195.18530273 -280.88703125 195.18530273 -280.20703125 195.18530273 C-280.91279297 194.24170898 -280.91279297 194.24170898 -281.6328125 193.27905273 C-288.22114316 184.22180313 -292.37834401 175.69450532 -290.64453125 164.24780273 C-288.86868244 156.44846676 -284.01602397 150.48173727 -278.20703125 145.18530273 C-278.738125 144.65163086 -279.26921875 144.11795898 -279.81640625 143.56811523 C-288.89111023 133.9966209 -291.56705994 124.36370898 -291.421875 111.34545898 C-290.8455317 102.86797297 -288.1076204 96.04289283 -283.20703125 89.18530273 C-282.54703125 88.19530273 -281.88703125 87.20530273 -281.20703125 86.18530273 C-281.88765625 86.10280273 -282.56828125 86.02030273 -283.26953125 85.93530273 C-289.88886663 84.24525966 -294.47923046 80.88664512 -298.20703125 75.18530273 C-299.86138042 68.87809651 -299.19805428 63.9890759 -296.20703125 58.18530273 C-289.55898349 47.98698863 -277.64895747 41.63946914 -266.20703125 38.18530273 C-265.21703125 38.18530273 -264.22703125 38.18530273 -263.20703125 38.18530273 C-263.12066406 37.5678418 -263.03429687 36.95038086 -262.9453125 36.31420898 C-261.35495057 26.728266 -257.8576905 20.13279299 -250.5625 13.69311523 C-243.97488702 9.47616895 -236.61147579 8.32437455 -229.01953125 7.12280273 C-227.96725342 6.95288818 -226.91497559 6.78297363 -225.83081055 6.60791016 C-203.07525636 3.04588871 -180.10167198 2.11186021 -157.09726524 1.92494202 C-154.41715667 1.90312393 -151.73713473 1.87619031 -149.05708313 1.8482666 C-143.33627046 1.78957379 -137.6154088 1.73721346 -131.89453125 1.68530273 C-124.39839506 1.61639315 -116.90230392 1.54390748 -109.40625 1.46655273 C-108.47177662 1.45710443 -107.53730324 1.44765614 -106.57451248 1.43792152 C-94.44902346 1.31213479 -82.33189896 1.08078252 -70.21081734 0.73424721 C-46.80855798 0.06824548 -23.41066536 -0.00218114 0 0 Z M-270.95703125 56.93530273 C-272.00375 57.44577148 -273.05046875 57.95624023 -274.12890625 58.48217773 C-277.15293556 60.15537162 -279.67177516 61.83801319 -282.20703125 64.18530273 C-283.09297123 67.32393977 -283.09297123 67.32393977 -283.20703125 70.18530273 C-273.59335693 77.09842481 -273.59335693 77.09842481 -262.20703125 79.18530273 C-262.86703125 70.93530273 -263.52703125 62.68530273 -264.20703125 54.18530273 C-266.47759178 54.18530273 -268.99685931 55.96955949 -270.95703125 56.93530273 Z M-270.20703125 99.18530273 C-274.61566631 103.71639988 -275.93263432 108.27669525 -276.51953125 114.49780273 C-275.79584759 123.03726995 -273.14942583 129.92778117 -267.20703125 136.18530273 C-263.71440836 138.84634874 -262.6930032 139.18530273 -258.20703125 139.18530273 C-258.46876537 133.72241265 -258.735421 128.25979308 -259.0065918 122.79736328 C-259.09810712 120.94000724 -259.18828957 119.08258502 -259.27709961 117.22509766 C-259.40516377 114.55149007 -259.53805745 111.87815903 -259.671875 109.20483398 C-259.71046127 108.37756302 -259.74904755 107.55029205 -259.7888031 106.69795227 C-259.9900308 102.76849778 -260.28146258 99.02658222 -261.20703125 95.18530273 C-265.30335622 95.18530273 -266.96771006 96.73928469 -270.20703125 99.18530273 Z M-271.09765625 161.00561523 C-273.98444025 164.35484521 -276.00611896 166.7789167 -276.64453125 171.24780273 C-275.85375967 178.36474695 -271.62268931 183.34032832 -266.14453125 187.74780273 C-262.68584785 190.35772947 -261.99910479 190.18530273 -257.20703125 190.18530273 C-257.53703125 178.30530273 -257.86703125 166.42530273 -258.20703125 154.18530273 C-262.91985717 154.18530273 -267.81553779 157.84555903 -271.09765625 161.00561523 Z M-281.3125 214.95092773 C-284.90486716 219.1876989 -286.25048985 223.12388604 -286.171875 228.66186523 C-285.25082982 235.5008904 -282.13273274 240.43820493 -277.20703125 245.18530273 C-271.36655956 249.52239375 -265.24059341 251.07523408 -258.20703125 253.18530273 C-258.20703125 237.67530273 -258.20703125 222.16530273 -258.20703125 206.18530273 C-268.14224693 206.18530273 -274.06995268 208.00011175 -281.3125 214.95092773 Z M-286.89453125 277.31030273 C-290.31324263 281.56059256 -290.67892331 285.13018487 -290.609375 290.42358398 C-289.63448012 297.11533813 -285.55471272 302.45234379 -280.33203125 306.56030273 C-278.97635182 307.46494813 -277.60108044 308.34098238 -276.20703125 309.18530273 C-275.54445313 309.6094043 -274.881875 310.03350586 -274.19921875 310.47045898 C-269.05306374 313.44715649 -266.03737495 313.11451376 -260.20703125 312.18530273 C-259.08906429 297.85136919 -259.09930207 283.55637559 -259.20703125 269.18530273 C-269.7078275 268.85855435 -278.91723112 269.69474175 -286.89453125 277.31030273 Z M-283.35546875 336.18530273 C-287.62762584 340.92826897 -289.65610598 344.37893581 -289.546875 351.00561523 C-288.46116136 357.96915788 -282.43047458 363.86209212 -277.20703125 368.18530273 C-270.72686285 372.91407427 -268.80223647 373.25970339 -260.20703125 372.18530273 C-260.20703125 357.33530273 -260.20703125 342.48530273 -260.20703125 327.18530273 C-268.45027415 327.18530273 -277.36526861 330.60897097 -283.35546875 336.18530273 Z M-282.58203125 395.49780273 C-286.89402104 399.91245895 -288.85052717 403.97497744 -289.83203125 410.06030273 C-289.44555252 416.39356713 -285.75316686 421.91094564 -281.12109375 426.04858398 C-274.62009431 430.64490464 -268.17147566 433.18530273 -260.20703125 433.18530273 C-260.20703125 418.33530273 -260.20703125 403.48530273 -260.20703125 388.18530273 C-269.93681512 388.18530273 -274.97397168 389.8636226 -282.58203125 395.49780273 Z " fill="#000000" transform="translate(327.20703125,-0.185302734375)"/>
<path d="M0 0 C0.33 0.66 0.66 1.32 1 2 C3.40047871 2.46801786 5.7691846 2.8429805 8.1875 3.1875 C22.32788822 5.55745064 34.07966263 12.28404479 43.0625 23.59765625 C48.89186107 32.0380853 52.12521475 41.33608036 50.56640625 51.640625 C47.30957712 65.20700288 37.80508116 75.80443875 28.0625 85.25 C27.10133266 86.19963008 26.14104251 87.15014884 25.18164062 88.1015625 C20.48306451 92.72566084 15.72513731 97.23331022 10.70288086 101.50488281 C8.8874486 103.09881932 7.19135608 104.77560864 5.5 106.5 C3.12957643 108.91332717 0.69263692 111.17271853 -1.875 113.375 C-4.8846753 115.96634205 -7.71088616 118.67254783 -10.5 121.5 C-13.22829407 124.26560408 -15.98516834 126.91287031 -18.9375 129.4375 C-22.94850616 132.87436611 -26.62905986 136.59200743 -30.3125 140.375 C-32.35229088 142.36735388 -34.39695433 144.21665994 -36.56030273 146.06469727 C-41.49137854 150.36532164 -46.10311254 154.95936892 -50.72265625 159.58984375 C-51.62696884 160.49319962 -52.53128143 161.39655548 -53.46299744 162.32728577 C-55.36434943 164.22796068 -57.26467553 166.12959608 -59.16333008 168.03295898 C-61.57585861 170.45118392 -63.99285081 172.86488958 -66.41121769 175.27727413 C-68.74664575 177.60818401 -71.07822177 179.94293956 -73.41015625 182.27734375 C-74.26762955 183.13279282 -75.12510284 183.98824188 -76.00856018 184.86961365 C-80.32993146 189.20770843 -84.51266585 193.60406346 -88.4888916 198.26184082 C-91.00715145 201.15848045 -93.71300557 203.86121039 -96.4375 206.5625 C-96.99880615 207.12187256 -97.5601123 207.68124512 -98.13842773 208.25756836 C-102.27652053 212.3528102 -106.56176797 216.23189706 -111 220 C-113.84702429 222.46229128 -114.87864641 223.64942296 -116.125 227.25 C-118.36450518 232.76711433 -123.3133734 235.62952006 -128 239 C-128.63341309 239.46100098 -129.26682617 239.92200195 -129.91943359 240.39697266 C-175.93518643 273.83225197 -175.93518643 273.83225197 -198.06640625 272.4140625 C-200 272 -200 272 -202.6875 270.4375 C-204.56690907 266.94716887 -203.76976115 264.85666044 -203 261 C-202.07431831 258.35883481 -201.10134866 255.78243246 -200.0625 253.1875 C-196.5237001 243.97475836 -193.69417635 234.59323504 -190.9375 225.125 C-190.72296173 224.38929779 -190.50842346 223.65359558 -190.28738403 222.89559937 C-188.18640865 215.67790346 -186.11930999 208.45127879 -184.09765625 201.2109375 C-183.82252197 200.2297998 -183.5473877 199.24866211 -183.26391602 198.23779297 C-182.76933273 196.46525958 -182.28111622 194.69093221 -181.80053711 192.91455078 C-180.21951453 187.21951453 -180.21951453 187.21951453 -178 185 C-177.67 183.989375 -177.34 182.97875 -177 181.9375 C-174.68312021 176.28054986 -169.5762862 172.8181665 -165 169 C-154.16533928 159.89710882 -143.94551566 149.8610302 -135.17578125 138.74609375 C-132.66708423 135.57982084 -130.06008997 132.50938362 -127.4375 129.4375 C-123.61409883 124.93980416 -119.87292311 120.39016733 -116.203125 115.765625 C-103.50359346 99.82365988 -90.53475669 84.08336355 -77.32666016 68.56054688 C-75.50838289 66.42171208 -73.69533816 64.27847515 -71.8828125 62.13476562 C-70.9603942 61.04427958 -70.03721578 59.95443606 -69.11328125 58.86523438 C-66.86941941 56.2188719 -64.6358455 53.56530024 -62.42578125 50.890625 C-48.65456183 34.28995164 -33.73240422 18.92045979 -16.9375 5.375 C-15.98991821 4.61062622 -15.98991821 4.61062622 -15.02319336 3.83081055 C-6.52541344 -2.90018375 -6.52541344 -2.90018375 0 0 Z M-13.32421875 21.1328125 C-14.20722656 22.07898438 -15.09023438 23.02515625 -16 24 C-17.4697424 25.32891688 -18.9400012 26.65738273 -20.42456055 27.96972656 C-26.79879823 33.6554715 -32.82510451 39.72461219 -38.875 45.75 C-39.67164063 46.54196777 -40.46828125 47.33393555 -41.2890625 48.14990234 C-46.0653762 52.93923871 -50.60408278 57.86114783 -55 63 C-56.06919783 64.22623323 -57.13949453 65.45150926 -58.2109375 66.67578125 C-64.60465379 74.01601438 -70.8803521 81.42857402 -77 89 C-78.02931488 90.25963213 -79.05931046 91.51870823 -80.08984375 92.77734375 C-86.87656911 101.07634488 -93.51386523 109.46336846 -100 118 C-101.27452204 119.6733428 -102.5492804 121.34650562 -103.82421875 123.01953125 C-105.91601812 125.7647863 -108.00770961 128.51012284 -110.09887695 131.25585938 C-115.37810469 138.18707756 -120.65823808 145.11678591 -126 152 C-126.65871094 152.85335937 -127.31742188 153.70671875 -127.99609375 154.5859375 C-138.53694747 168.0324189 -149.98492819 181.09153765 -166 188 C-166 188.33 -166 188.66 -166 189 C-165.05640625 189.20302734 -165.05640625 189.20302734 -164.09375 189.41015625 C-157.1764202 191.14990637 -152.96907511 193.94567115 -148 199 C-147.34 199.66 -146.68 200.32 -146 201 C-145.45085937 199.94425781 -145.45085937 199.94425781 -144.890625 198.8671875 C-136.74795847 184.01651473 -124.58243915 172.29454971 -112.99609375 160.10498047 C-102.38581481 148.91591186 -91.87593702 137.62318869 -81.74609375 125.99609375 C-78.21068856 121.95450079 -74.61996621 117.96599239 -71 114 C-70.27490234 113.20505127 -70.27490234 113.20505127 -69.53515625 112.39404297 C-59.90941686 101.88314363 -49.87897109 91.79749434 -39.74414062 81.78100586 C-34.80532304 76.88874756 -29.93818315 71.9885028 -25.45117188 66.66992188 C-23.87752748 64.85906594 -22.21267683 63.1792222 -20.5 61.5 C-16.78781628 57.83709306 -13.38670517 53.96330664 -10 50 C-9.18660156 49.06414062 -8.37320313 48.12828125 -7.53515625 47.1640625 C-0.26922259 38.74871561 6.41385057 29.95394487 13 21 C9.00017922 17.00017922 2.51480935 15.70507558 -2.99804688 14.98681641 C-7.61252954 15.01720446 -10.24543193 18.05858684 -13.32421875 21.1328125 Z M23 26 C21.59139983 27.61716972 20.22419337 29.27044582 18.875 30.9375 C18.05386719 31.95070313 17.23273438 32.96390625 16.38671875 34.0078125 C14.45947521 36.42396397 12.56387594 38.85699569 10.6875 41.3125 C-0.96902994 56.25309451 -14.22362194 69.44138752 -27.66693115 82.74597168 C-32.01658435 87.0519041 -36.35907609 91.36503125 -40.69838524 95.68138504 C-42.19526336 97.16820857 -43.69558667 98.65148412 -45.19636536 100.1343689 C-50.35370042 105.25516188 -55.2845497 110.47144018 -60 116 C-61.61967817 117.77570221 -63.24411718 119.54708307 -64.875 121.3125 C-68.16432238 124.91391171 -71.32017636 128.57307275 -74.375 132.375 C-79.17916586 138.32503581 -84.35902233 143.87843198 -89.57617188 149.46289062 C-91.66537948 151.71831776 -93.70667983 154.0155263 -95.75 156.3125 C-98.46154425 159.34218573 -101.23072048 162.26953266 -104.125 165.125 C-107.96242213 168.91709825 -111.51415895 172.88427392 -115 177 C-116.14275391 178.34384766 -116.14275391 178.34384766 -117.30859375 179.71484375 C-122.61177534 186.01082065 -127.70262631 192.43255504 -132.67578125 198.9921875 C-135.04790476 202.06199439 -137.49938367 205.03466736 -140 208 C-139.09507812 208.58007812 -139.09507812 208.58007812 -138.171875 209.171875 C-131.3847487 213.59445407 -131.3847487 213.59445407 -128.6875 216.4375 C-127.8521875 217.2109375 -127.8521875 217.2109375 -127 218 C-124.97551394 217.89109966 -124.97551394 217.89109966 -123 217 C-121.32475587 214.45876514 -119.8705836 211.98471172 -118.4375 209.3125 C-106.70676492 188.50679848 -89.10130885 170.18770938 -71.00390625 154.72265625 C-68.75737755 152.79142982 -66.56723628 150.80511802 -64.375 148.8125 C-60.9863491 145.74978041 -57.55200136 142.75440261 -54.06835938 139.80126953 C-46.41117668 133.30884739 -39.06318494 126.53268497 -31.7578125 119.64892578 C-29.14994842 117.20260439 -26.51502808 114.78650929 -23.875 112.375 C-19.20838177 108.10819913 -14.55260815 103.83011934 -9.91210938 99.53491211 C-7.2714542 97.09152482 -4.62502579 94.65571764 -1.95703125 92.2421875 C4.79205533 86.11839502 11.36853029 79.81805017 17.875 73.4375 C18.67180176 72.67042725 19.46860352 71.90335449 20.28955078 71.11303711 C27.67400451 63.80216457 35.02857918 55.49143418 35.3125 44.6875 C35.20673288 36.63862253 30.94552201 32.71912456 25.48828125 27.3203125 C24.20691087 25.88939461 24.20691087 25.88939461 23 26 Z M-169 197 C-169.81736749 200.9990211 -170.62800952 204.99937762 -171.4375 209 C-171.66759766 210.12535156 -171.89769531 211.25070312 -172.13476562 212.41015625 C-173.31596799 218.26481144 -174.36670827 224.06016035 -175 230 C-173.80375 230.495 -172.6075 230.99 -171.375 231.5 C-166.46447862 233.91157278 -163.90084398 237.47292531 -161 242 C-156.03304522 240.36382666 -152.10599266 237.48250302 -147.875 234.5 C-146.45576219 233.51036931 -145.03649259 232.5207842 -143.6171875 231.53125 C-142.99440918 231.09361328 -142.37163086 230.65597656 -141.72998047 230.20507812 C-140.16722233 229.11648454 -138.58466791 228.05644527 -137 227 C-137.04768403 225.12119128 -137.04768403 225.12119128 -138 223 C-141.6910256 219.87682449 -144.47066842 218.87534955 -149.1875 217.9375 C-151.8046875 217.23828125 -151.8046875 217.23828125 -154 216 C-155.27444989 213.23576213 -155.80796721 210.64869554 -156.37890625 207.6640625 C-157.26347897 203.86985748 -158.88627552 202.26452689 -162 200 C-163.20987134 199.42755952 -164.43483205 198.88607878 -165.671875 198.375 C-166.77015625 197.92125 -167.8684375 197.4675 -169 197 Z " fill="#000000" transform="translate(440,240)"/>
<path d="M0 0 C0.96655518 0.01202454 1.93311035 0.02404907 2.92895508 0.03643799 C9.3222962 0.11615768 15.71523125 0.21034825 22.10812378 0.32040405 C24.20486926 0.35612826 26.30165168 0.38976083 28.39846802 0.42105103 C47.4361159 0.71695508 66.35908092 1.66881356 85.0625 5.4375 C86.16142578 5.64181641 87.26035156 5.84613281 88.39257812 6.05664062 C94.43680594 7.23896672 99.31741114 8.31741114 103.8125 12.8125 C105.39930033 15.73555324 105.34213303 17.71552292 105 21 C103.79293121 24.34265205 103.07943151 24.94704566 100 27 C93.36549074 27.5177432 87.49140473 26.16183279 81.0625 24.625 C57.63624222 19.30254232 34.0070884 18.77472902 10.0625 18.75 C9.01605316 18.74766357 7.96960632 18.74532715 6.89144897 18.74291992 C-11.55044788 18.72758928 -29.8320593 19.66104336 -48.20930481 21.14199829 C-70.31458566 22.9109345 -70.31458566 22.9109345 -81.25 21.125 C-82.30703125 20.96257812 -83.3640625 20.80015625 -84.453125 20.6328125 C-87 20 -87 20 -89 18 C-89.16111517 14.67028646 -89.24302272 12.97141623 -88 10 C-85.37643649 7.68842782 -82.3220224 6.94067471 -79 6 C-77.783125 5.65195313 -76.56625 5.30390625 -75.3125 4.9453125 C-50.89165098 -1.45559379 -25.03971085 -0.33860441 0 0 Z " fill="#000000" transform="translate(279,70)"/>
<path d="M0 0 C2.14453125 2.46484375 2.14453125 2.46484375 2.64453125 5.52734375 C1.82286334 10.35464271 1.82286334 10.35464271 -0.85546875 12.46484375 C-9.62137369 13.04923741 -17.83089552 11.08389412 -26.37890625 9.33007812 C-39.85274838 6.67683866 -53.0957492 6.23531578 -66.79296875 6.71484375 C-67.4738858 6.73751312 -68.15480286 6.7601825 -68.85635376 6.78353882 C-84.58673702 7.32332354 -100.20990979 8.78376916 -115.85546875 10.46484375 C-116.63325684 10.54816956 -117.41104492 10.63149536 -118.21240234 10.71734619 C-125.53756857 11.50289221 -132.86261821 12.28946009 -140.18432617 13.10668945 C-185.10146956 18.09901202 -185.10146956 18.09901202 -191.61328125 13.12109375 C-193.47213552 10.64262139 -193.05544786 8.46453039 -192.85546875 5.46484375 C-186.38462851 2.28137928 -179.70891598 0.94737848 -172.66796875 -0.47265625 C-171.38712402 -0.73280518 -170.1062793 -0.9929541 -168.78662109 -1.26098633 C-145.3408251 -5.94787113 -121.66138688 -8.50918548 -97.85546875 -10.53515625 C-96.6530957 -10.64102051 -95.45072266 -10.74688477 -94.21191406 -10.85595703 C-19.49593818 -17.30897931 -19.49593818 -17.30897931 0 0 Z " fill="#000000" transform="translate(379.85546875,140.53515625)"/>
<path d="M0 0 C2.28280943 0.01095589 4.56486651 -0.00013127 6.84765625 -0.01269531 C28.44941916 -0.0331426 28.44941916 -0.0331426 36.48828125 5.26074219 C38.99786817 7.7703291 40.30661662 9.32971096 40.98828125 12.82324219 C40.29211913 16.21703254 39.32975814 17.27170837 36.48828125 19.26074219 C29.28192445 20.65300777 22.19635774 20.12849422 14.89941406 19.78833008 C-0.11114437 19.17227947 -15.05314264 19.35317609 -30.07114506 19.76513553 C-33.54684093 19.85845512 -37.02278933 19.94130396 -40.49871826 20.02540588 C-47.03794497 20.18507327 -53.57692201 20.35320189 -60.11584353 20.52487093 C-69.72745866 20.77678452 -79.33942006 21.01484101 -88.95136642 21.25371647 C-90.38056202 21.28925888 -91.80975743 21.32480893 -93.23895264 21.36036682 C-93.93715771 21.37772686 -94.63536279 21.39508689 -95.3547256 21.41297299 C-100.11410517 21.53163445 -104.87337853 21.65397707 -109.63262939 21.7776947 C-110.89597107 21.81011765 -112.15931274 21.84254059 -113.4609375 21.87594604 C-115.79989225 21.93602328 -118.13882307 21.99704376 -120.47772217 22.05924988 C-139.52149836 22.54448128 -139.52149836 22.54448128 -144.94921875 21.44824219 C-145.75230469 21.29742187 -146.55539063 21.14660156 -147.3828125 20.99121094 C-149.85519155 20.14289005 -151.02768771 19.41887546 -152.51171875 17.26074219 C-152.4609375 15.20996094 -152.4609375 15.20996094 -151.51171875 13.26074219 C-149.65625 12.03027344 -149.65625 12.03027344 -147.32421875 11.07324219 C-146.18919922 10.58791016 -146.18919922 10.58791016 -145.03125 10.09277344 C-139.27256426 8.19106791 -133.29953763 7.97740905 -127.29125977 7.62817383 C-126.38123199 7.57271896 -125.47120422 7.5172641 -124.53359985 7.46012878 C-122.56126258 7.3403442 -120.58883677 7.22201031 -118.61633492 7.10496712 C-115.47148948 6.9182784 -112.32690522 6.72763439 -109.18235779 6.53599548 C-102.47985455 6.12823547 -95.7770591 5.72541742 -89.07421875 5.32324219 C-81.35659806 4.86008983 -73.63911683 4.39479782 -65.92191887 3.92465019 C-62.86569554 3.73946209 -59.80927384 3.55786587 -56.75282288 3.3764801 C-45.93818321 2.72418843 -35.14834287 1.93914796 -24.36139011 0.92034245 C-16.23663696 0.17019037 -8.15616979 -0.04642303 0 0 Z " fill="#000000" transform="translate(336.51171875,191.7392578125)"/>
<path d="M0 0 C5.18305117 3.37501006 6.09322796 7.86567129 7.421875 13.57421875 C8.93396849 22.53439437 9.24410754 31.5329106 9.50268555 40.60229492 C9.56190224 42.66666142 9.62720216 44.73076743 9.69335938 46.79492188 C10.81031472 82.91492272 10.81031472 82.91492272 2.9921875 92.25 C-3.39292242 97.85888087 -11.68133354 100.82037326 -20 102 C-21.00353516 102.16435547 -21.00353516 102.16435547 -22.02734375 102.33203125 C-40.82372433 104.95722407 -74.1953604 106.7701393 -91 97 C-93.31282587 93.53076119 -93.42478586 92.07794425 -93 88 C-91.06418232 85.19306436 -89.25434604 84.63773411 -86 84 C-75.53388724 83.41348193 -64.94149158 84.48527111 -54.50146484 85.22094727 C-33.21135276 86.79405881 -33.21135276 86.79405881 -13 81 C-12.01 80.67 -11.02 80.34 -10 80 C-4.91816875 66.64962342 -8.33565094 49.50994304 -9.5 35.5625 C-11.95621421 5.71702464 -11.95621421 5.71702464 -8 1 C-5.11138291 -0.44430855 -3.20352299 -0.37688506 0 0 Z " fill="#000000" transform="translate(445,372)"/>
<path d="M0 0 C2.17387124 2.7389448 2.21833638 5.18694729 2.27734375 8.609375 C0.51093203 11.41126946 -0.75315447 13.12462411 -3.72265625 14.609375 C-5.76715347 14.54566545 -7.80966253 14.40933038 -9.84765625 14.234375 C-10.94335938 14.14414062 -12.0390625 14.05390625 -13.16796875 13.9609375 C-15.58715351 13.72167747 -18.00169395 13.43116857 -20.40942383 13.09570312 C-24.71524229 12.55486584 -28.9537179 12.46474901 -33.2890625 12.4765625 C-34.48389503 12.47512741 -34.48389503 12.47512741 -35.7028656 12.47366333 C-37.38109415 12.47298683 -39.0593254 12.47480391 -40.73754883 12.47900391 C-43.25413181 12.48430959 -45.77053222 12.47906666 -48.28710938 12.47265625 C-57.07774067 12.46919386 -65.79164534 12.69350166 -74.55712891 13.37060547 C-84.68562831 14.13457835 -94.46406491 14.3253593 -102.72265625 7.609375 C-102.66015625 5.796875 -102.66015625 5.796875 -101.72265625 3.609375 C-96.51365468 0.93375001 -91.62324868 -0.15448169 -85.84765625 -0.890625 C-84.93781982 -1.00954102 -84.0279834 -1.12845703 -83.09057617 -1.25097656 C-73.66316013 -2.40060654 -64.19966059 -3.18985949 -54.73260498 -3.92944336 C-52.9633193 -4.06795967 -51.19429999 -4.20993099 -49.42559814 -4.35571289 C-9.42406827 -7.60763788 -9.42406827 -7.60763788 0 0 Z " fill="#000000" transform="translate(289.72265625,261.390625)"/>
</svg>
